<?xml version="1.0"?>
<svg xmlns:rdf="http://www.w3.org/1999/02/22-rdf-syntax-ns#" xmlns="http://www.w3.org/2000/svg" xmlns:cc="http://web.resource.org/cc/" xmlns:dc="http://purl.org/dc/elements/1.1/" xmlns:svg="http://www.w3.org/2000/svg" id="svg2" viewBox="0 0 523.82 564.28" version="1.0">
  <g id="layer1" transform="translate(-133.74 -266.31)">
    <g id="g6360" stroke="#0b110b" stroke-opacity=".49758" transform="translate(20.395 8.1578)">
      <rect id="rect1876" rx="52" ry=".1" height="558.48" width="518.02" y="261.05" x="116.25" stroke-width="5.8" fill="#bdd6ee"/>
      <path id="path3653" d="m-183.91 360.13a108.09 114.21 0 1 1 0.01 -0.17" fill="#4d4d4d" transform="matrix(1.216 0 0 1.2133 720.71 122.99)"/>
      <path id="path3651" d="m-183.91 360.13a108.09 114.21 0 1 1 0.01 -0.17" fill="#ccc" transform="translate(658.75 197.83)"/>
      <rect id="rect3659" height="38.515" width="103.78" y="299.92" x="146.96" stroke-width="1.235" fill="#999"/>
      <path id="path3661" d="m-381.44 282.95a18.355 18.355 0 1 1 0 -0.03" transform="translate(985.06 28.552)"/>
      <path id="path3663" d="m-381.44 282.95a18.355 18.355 0 1 1 0 -0.03" fill="#fca" transform="translate(937.06 28.552)"/>
      <path id="path4550" d="m-381.44 282.95a18.355 18.355 0 1 1 0 -0.03" fill="#aaffd6" transform="translate(885.06 28.552)"/>
      <rect id="rect5455" rx="52.084" ry=".0026468" height="14.782" width="518.86" y="805.17" x="115.91" stroke-width=".16282"/>
      <rect id="rect5459" rx="52.084" ry="18" height="77.5" width="38.75" y="501.71" x="467.04" fill="gray"/>
      <rect id="rect5467" rx="52.084" ry=".0026468" height="14.782" width="518.86" y="261.17" x="115.91" stroke-width=".16282"/>
    </g>
  </g>
  <metadata>
    <rdf:RDF>
      <cc:Work>
        <dc:format>image/svg+xml</dc:format>
        <dc:type rdf:resource="http://purl.org/dc/dcmitype/StillImage"/>
        <cc:license rdf:resource="http://creativecommons.org/licenses/publicdomain/"/>
        <dc:publisher>
          <cc:Agent rdf:about="http://openclipart.org/">
            <dc:title>Openclipart</dc:title>
          </cc:Agent>
        </dc:publisher>
        <dc:title>Washing-machine</dc:title>
        <dc:date>2006-12-29T08:56:20</dc:date>
        <dc:description>activity, activity, clip art, clipart, electrical appliances, electrical appliances, house, house, image, media, people, people, png, public domain, svg, tool, tool, </dc:description>
        <dc:source>http://openclipart.org/detail/2405/washing-machine-by-machovka-2405</dc:source>
        <dc:creator>
          <cc:Agent>
            <dc:title>Machovka</dc:title>
          </cc:Agent>
        </dc:creator>
        <dc:subject>
          <rdf:Bag>
            <rdf:li>activity</rdf:li>
            <rdf:li>clip art</rdf:li>
            <rdf:li>clipart</rdf:li>
            <rdf:li>electrical appliances</rdf:li>
            <rdf:li>house</rdf:li>
            <rdf:li>image</rdf:li>
            <rdf:li>media</rdf:li>
            <rdf:li>people</rdf:li>
            <rdf:li>png</rdf:li>
            <rdf:li>public domain</rdf:li>
            <rdf:li>svg</rdf:li>
            <rdf:li>tool</rdf:li>
          </rdf:Bag>
        </dc:subject>
      </cc:Work>
      <cc:License rdf:about="http://creativecommons.org/licenses/publicdomain/">
        <cc:permits rdf:resource="http://creativecommons.org/ns#Reproduction"/>
        <cc:permits rdf:resource="http://creativecommons.org/ns#Distribution"/>
        <cc:permits rdf:resource="http://creativecommons.org/ns#DerivativeWorks"/>
      </cc:License>
    </rdf:RDF>
  </metadata>
</svg>
